<svg width="489" height="45" viewBox="0 0 489 45" fill="none" xmlns="http://www.w3.org/2000/svg">
<path d="M139.242 23.6797L150.422 27.7227V32.4863L135.234 26.0527V22.6777L139.242 23.6797ZM150.422 20.375L139.225 24.4883L135.234 25.4375V22.0625L150.422 15.6289V20.375ZM164.941 23.7676H158.367L158.332 20.1465H163.852C164.824 20.1465 165.621 20.0234 166.242 19.7773C166.863 19.5195 167.326 19.1504 167.631 18.6699C167.947 18.1777 168.105 17.5801 168.105 16.877C168.105 16.0801 167.953 15.4355 167.648 14.9434C167.355 14.4512 166.893 14.0938 166.26 13.8711C165.639 13.6484 164.836 13.5371 163.852 13.5371H160.195V35H154.922V9.40625H163.852C165.34 9.40625 166.67 9.54688 167.842 9.82812C169.025 10.1094 170.027 10.5371 170.848 11.1113C171.668 11.6855 172.295 12.4121 172.729 13.291C173.162 14.1582 173.379 15.1895 173.379 16.3848C173.379 17.4395 173.139 18.4121 172.658 19.3027C172.189 20.1934 171.445 20.9199 170.426 21.4824C169.418 22.0449 168.1 22.3555 166.471 22.4141L164.941 23.7676ZM164.713 35H156.926L158.982 30.8867H164.713C165.639 30.8867 166.395 30.7402 166.98 30.4473C167.566 30.1426 168 29.7324 168.281 29.2168C168.562 28.7012 168.703 28.1094 168.703 27.4414C168.703 26.6914 168.574 26.041 168.316 25.4902C168.07 24.9395 167.672 24.5176 167.121 24.2246C166.57 23.9199 165.844 23.7676 164.941 23.7676H159.861L159.896 20.1465H166.225L167.438 21.5703C168.996 21.5469 170.25 21.8223 171.199 22.3965C172.16 22.959 172.857 23.6914 173.291 24.5938C173.736 25.4961 173.959 26.4629 173.959 27.4941C173.959 29.1348 173.602 30.5176 172.887 31.6426C172.172 32.7559 171.123 33.5938 169.74 34.1562C168.369 34.7188 166.693 35 164.713 35ZM191.238 28.3027C191.238 27.8457 191.168 27.4355 191.027 27.0723C190.898 26.6973 190.652 26.3574 190.289 26.0527C189.926 25.7363 189.416 25.4258 188.76 25.1211C188.104 24.8164 187.254 24.5 186.211 24.1719C185.051 23.7969 183.949 23.375 182.906 22.9062C181.875 22.4375 180.961 21.8926 180.164 21.2715C179.379 20.6387 178.758 19.9062 178.301 19.0742C177.855 18.2422 177.633 17.2754 177.633 16.1738C177.633 15.1074 177.867 14.1406 178.336 13.2734C178.805 12.3945 179.461 11.6445 180.305 11.0234C181.148 10.3906 182.145 9.9043 183.293 9.56445C184.453 9.22461 185.725 9.05469 187.107 9.05469C188.994 9.05469 190.641 9.39453 192.047 10.0742C193.453 10.7539 194.543 11.6855 195.316 12.8691C196.102 14.0527 196.494 15.4062 196.494 16.9297H191.256C191.256 16.1797 191.098 15.5234 190.781 14.9609C190.477 14.3867 190.008 13.9355 189.375 13.6074C188.754 13.2793 187.969 13.1152 187.02 13.1152C186.105 13.1152 185.344 13.2559 184.734 13.5371C184.125 13.8066 183.668 14.1758 183.363 14.6445C183.059 15.1016 182.906 15.6172 182.906 16.1914C182.906 16.625 183.012 17.0176 183.223 17.3691C183.445 17.7207 183.773 18.0488 184.207 18.3535C184.641 18.6582 185.174 18.9453 185.807 19.2148C186.439 19.4844 187.172 19.748 188.004 20.0059C189.398 20.4277 190.623 20.9023 191.678 21.4297C192.744 21.957 193.635 22.5488 194.35 23.2051C195.064 23.8613 195.604 24.6055 195.967 25.4375C196.33 26.2695 196.512 27.2129 196.512 28.2676C196.512 29.3809 196.295 30.377 195.861 31.2559C195.428 32.1348 194.801 32.8789 193.98 33.4883C193.16 34.0977 192.182 34.5605 191.045 34.877C189.908 35.1934 188.637 35.3516 187.23 35.3516C185.965 35.3516 184.717 35.1875 183.486 34.8594C182.256 34.5195 181.137 34.0098 180.129 33.3301C179.133 32.6504 178.336 31.7832 177.738 30.7285C177.141 29.6738 176.842 28.4258 176.842 26.9844H182.133C182.133 27.7812 182.256 28.4551 182.502 29.0059C182.748 29.5566 183.094 30.002 183.539 30.3418C183.996 30.6816 184.535 30.9277 185.156 31.0801C185.789 31.2324 186.48 31.3086 187.23 31.3086C188.145 31.3086 188.895 31.1797 189.48 30.9219C190.078 30.6641 190.518 30.3066 190.799 29.8496C191.092 29.3926 191.238 28.877 191.238 28.3027ZM210.715 9.40625L201.328 37.1973H197.566L206.953 9.40625H210.715ZM224.531 24.3828L213.264 20.3574V15.6289L228.574 22.0625V25.4551L224.531 24.3828ZM213.264 27.7578L224.549 23.6445L228.574 22.6777V26.0527L213.264 32.4863V27.7578Z" fill="white"/>
<path d="M250.986 25.877H244.465V21.7637H250.986C251.994 21.7637 252.814 21.5996 253.447 21.2715C254.08 20.9316 254.543 20.4629 254.836 19.8652C255.129 19.2676 255.275 18.5938 255.275 17.8438C255.275 17.082 255.129 16.373 254.836 15.7168C254.543 15.0605 254.08 14.5332 253.447 14.1348C252.814 13.7363 251.994 13.5371 250.986 13.5371H246.293V35H241.02V9.40625H250.986C252.99 9.40625 254.707 9.76953 256.137 10.4961C257.578 11.2109 258.68 12.2012 259.441 13.4668C260.203 14.7324 260.584 16.1797 260.584 17.8086C260.584 19.4609 260.203 20.8906 259.441 22.0977C258.68 23.3047 257.578 24.2363 256.137 24.8926C254.707 25.5488 252.99 25.877 250.986 25.877ZM268.969 20.1289V35H263.906V15.9805H268.67L268.969 20.1289ZM274.699 15.8574L274.611 20.5508C274.365 20.5156 274.066 20.4863 273.715 20.4629C273.375 20.4277 273.064 20.4102 272.783 20.4102C272.068 20.4102 271.447 20.5039 270.92 20.6914C270.404 20.8672 269.971 21.1309 269.619 21.4824C269.279 21.834 269.021 22.2617 268.846 22.7656C268.682 23.2695 268.588 23.8438 268.564 24.4883L267.545 24.1719C267.545 22.9414 267.668 21.8105 267.914 20.7793C268.16 19.7363 268.518 18.8281 268.986 18.0547C269.467 17.2812 270.053 16.6836 270.744 16.2617C271.436 15.8398 272.227 15.6289 273.117 15.6289C273.398 15.6289 273.686 15.6523 273.979 15.6992C274.271 15.7344 274.512 15.7871 274.699 15.8574ZM275.754 25.6836V25.3145C275.754 23.9199 275.953 22.6367 276.352 21.4648C276.75 20.2812 277.33 19.2559 278.092 18.3887C278.854 17.5215 279.791 16.8477 280.904 16.3672C282.018 15.875 283.295 15.6289 284.736 15.6289C286.178 15.6289 287.461 15.875 288.586 16.3672C289.711 16.8477 290.654 17.5215 291.416 18.3887C292.189 19.2559 292.775 20.2812 293.174 21.4648C293.572 22.6367 293.771 23.9199 293.771 25.3145V25.6836C293.771 27.0664 293.572 28.3496 293.174 29.5332C292.775 30.7051 292.189 31.7305 291.416 32.6094C290.654 33.4766 289.717 34.1504 288.604 34.6309C287.49 35.1113 286.213 35.3516 284.771 35.3516C283.33 35.3516 282.047 35.1113 280.922 34.6309C279.809 34.1504 278.865 33.4766 278.092 32.6094C277.33 31.7305 276.75 30.7051 276.352 29.5332C275.953 28.3496 275.754 27.0664 275.754 25.6836ZM280.816 25.3145V25.6836C280.816 26.4805 280.887 27.2246 281.027 27.916C281.168 28.6074 281.391 29.2168 281.695 29.7441C282.012 30.2598 282.422 30.6641 282.926 30.957C283.43 31.25 284.045 31.3965 284.771 31.3965C285.475 31.3965 286.078 31.25 286.582 30.957C287.086 30.6641 287.49 30.2598 287.795 29.7441C288.1 29.2168 288.322 28.6074 288.463 27.916C288.615 27.2246 288.691 26.4805 288.691 25.6836V25.3145C288.691 24.541 288.615 23.8145 288.463 23.1348C288.322 22.4434 288.094 21.834 287.777 21.3066C287.473 20.7676 287.068 20.3457 286.564 20.041C286.061 19.7363 285.451 19.584 284.736 19.584C284.021 19.584 283.412 19.7363 282.908 20.041C282.416 20.3457 282.012 20.7676 281.695 21.3066C281.391 21.834 281.168 22.4434 281.027 23.1348C280.887 23.8145 280.816 24.541 280.816 25.3145ZM297.164 15.9805H302.244V36.1426C302.244 37.5488 301.986 38.7383 301.471 39.7109C300.955 40.6836 300.211 41.4219 299.238 41.9258C298.266 42.4297 297.088 42.6816 295.705 42.6816C295.271 42.6816 294.85 42.6582 294.439 42.6113C294.018 42.5645 293.584 42.4883 293.139 42.3828L293.156 38.498C293.438 38.5449 293.713 38.5801 293.982 38.6035C294.24 38.6387 294.504 38.6562 294.773 38.6562C295.301 38.6562 295.74 38.5684 296.092 38.3926C296.443 38.2168 296.707 37.9414 296.883 37.5664C297.07 37.2031 297.164 36.7285 297.164 36.1426V15.9805ZM296.76 11.0234C296.76 10.2852 297.018 9.67578 297.533 9.19531C298.061 8.71484 298.752 8.47461 299.607 8.47461C300.475 8.47461 301.166 8.71484 301.682 9.19531C302.197 9.67578 302.455 10.2852 302.455 11.0234C302.455 11.7617 302.197 12.3711 301.682 12.8516C301.166 13.332 300.475 13.5723 299.607 13.5723C298.752 13.5723 298.061 13.332 297.533 12.8516C297.018 12.3711 296.76 11.7617 296.76 11.0234ZM315.023 35.3516C313.547 35.3516 312.223 35.1172 311.051 34.6484C309.879 34.168 308.883 33.5059 308.062 32.6621C307.254 31.8184 306.633 30.8398 306.199 29.7266C305.766 28.6016 305.549 27.4062 305.549 26.1406V25.4375C305.549 23.9961 305.754 22.6777 306.164 21.4824C306.574 20.2871 307.16 19.25 307.922 18.3711C308.695 17.4922 309.633 16.8184 310.734 16.3496C311.836 15.8691 313.078 15.6289 314.461 15.6289C315.809 15.6289 317.004 15.8516 318.047 16.2969C319.09 16.7422 319.963 17.375 320.666 18.1953C321.381 19.0156 321.92 20 322.283 21.1484C322.646 22.2852 322.828 23.5508 322.828 24.9453V27.0547H307.711V23.6797H317.854V23.293C317.854 22.5898 317.725 21.9629 317.467 21.4121C317.221 20.8496 316.846 20.4043 316.342 20.0762C315.838 19.748 315.193 19.584 314.408 19.584C313.74 19.584 313.166 19.7305 312.686 20.0234C312.205 20.3164 311.812 20.7266 311.508 21.2539C311.215 21.7812 310.992 22.4023 310.84 23.1172C310.699 23.8203 310.629 24.5938 310.629 25.4375V26.1406C310.629 26.9023 310.734 27.6055 310.945 28.25C311.168 28.8945 311.479 29.4512 311.877 29.9199C312.287 30.3887 312.779 30.752 313.354 31.0098C313.939 31.2676 314.602 31.3965 315.34 31.3965C316.254 31.3965 317.104 31.2207 317.889 30.8691C318.686 30.5059 319.371 29.9609 319.945 29.2344L322.406 31.9062C322.008 32.4805 321.463 33.0312 320.771 33.5586C320.092 34.0859 319.271 34.5195 318.311 34.8594C317.35 35.1875 316.254 35.3516 315.023 35.3516ZM333.568 31.3965C334.189 31.3965 334.74 31.2793 335.221 31.0449C335.701 30.7988 336.076 30.459 336.346 30.0254C336.627 29.5801 336.773 29.0586 336.785 28.4609H341.549C341.537 29.7969 341.18 30.9863 340.477 32.0293C339.773 33.0605 338.83 33.875 337.646 34.4727C336.463 35.0586 335.139 35.3516 333.674 35.3516C332.197 35.3516 330.908 35.1055 329.807 34.6133C328.717 34.1211 327.809 33.4414 327.082 32.5742C326.355 31.6953 325.811 30.6758 325.447 29.5156C325.084 28.3438 324.902 27.0898 324.902 25.7539V25.2441C324.902 23.8965 325.084 22.6426 325.447 21.4824C325.811 20.3105 326.355 19.291 327.082 18.4238C327.809 17.5449 328.717 16.8594 329.807 16.3672C330.896 15.875 332.174 15.6289 333.639 15.6289C335.197 15.6289 336.562 15.9277 337.734 16.5254C338.918 17.123 339.844 17.9785 340.512 19.0918C341.191 20.1934 341.537 21.5 341.549 23.0117H336.785C336.773 22.3789 336.639 21.8047 336.381 21.2891C336.135 20.7734 335.771 20.3633 335.291 20.0586C334.822 19.7422 334.242 19.584 333.551 19.584C332.812 19.584 332.209 19.7422 331.74 20.0586C331.271 20.3633 330.908 20.7852 330.65 21.3242C330.393 21.8516 330.211 22.4551 330.105 23.1348C330.012 23.8027 329.965 24.5059 329.965 25.2441V25.7539C329.965 26.4922 330.012 27.2012 330.105 27.8809C330.199 28.5605 330.375 29.1641 330.633 29.6914C330.902 30.2188 331.271 30.6348 331.74 30.9395C332.209 31.2441 332.818 31.3965 333.568 31.3965ZM353.801 15.9805V19.5664H342.727V15.9805H353.801ZM345.469 11.2871H350.531V29.2695C350.531 29.8203 350.602 30.2422 350.742 30.5352C350.895 30.8281 351.117 31.0332 351.41 31.1504C351.703 31.2559 352.072 31.3086 352.518 31.3086C352.834 31.3086 353.115 31.2969 353.361 31.2734C353.619 31.2383 353.836 31.2031 354.012 31.168L354.029 34.8945C353.596 35.0352 353.127 35.1465 352.623 35.2285C352.119 35.3105 351.562 35.3516 350.953 35.3516C349.84 35.3516 348.867 35.1699 348.035 34.8066C347.215 34.4316 346.582 33.834 346.137 33.0137C345.691 32.1934 345.469 31.1152 345.469 29.7793V11.2871Z" fill="#449FF7"/>
</svg>
